<svg width="183" height="150" viewBox="0 0 183 150" fill="none" xmlns="http://www.w3.org/2000/svg">
<path d="M5 0V0C5 37.3846 5 56.077 13.0385 70C18.3046 79.1212 25.8788 86.6954 35 91.9615C48.923 100 67.6154 100 105 100V100V0" stroke="black" stroke-width="10"/>
<circle cx="95" cy="140" r="5" fill="black" stroke="black" stroke-width="10"/>
<mask id="path-3-outside-1_687_415" maskUnits="userSpaceOnUse" x="143" y="38" width="33" height="112" fill="black">
<rect fill="white" x="143" y="38" width="33" height="112"/>
<path d="M144.909 148.676L144.909 144.642L158.489 136.574L158.489 136.233L144.909 128.165L144.909 124.131L162.011 134.642L174 134.642L174 138.165L162.011 138.165L144.909 148.676ZM144.909 100.484L144.909 96.9613L164.17 96.9613C166.159 96.9613 167.935 97.43 169.497 98.3675C171.05 99.2956 172.277 100.607 173.176 102.302C174.066 103.997 174.511 105.986 174.511 108.268C174.511 110.55 174.066 112.539 173.176 114.234C172.277 115.929 171.05 117.245 169.497 118.183C167.935 119.111 166.159 119.575 164.17 119.575L144.909 119.575L144.909 116.052L163.886 116.052C165.307 116.052 166.571 115.74 167.679 115.115C168.777 114.49 169.644 113.6 170.278 112.444C170.903 111.279 171.216 109.887 171.216 108.268C171.216 106.649 170.903 105.257 170.278 104.092C169.644 102.927 168.777 102.037 167.679 101.422C166.571 100.797 165.307 100.484 163.886 100.484L144.909 100.484ZM174 88.7333L174 92.4265L144.909 81.7447L144.909 78.1083L174 67.4265L174 71.1197L149.511 79.8129L149.511 80.0401L174 88.7333ZM162.636 87.3697L162.636 72.4833L165.761 72.4833L165.761 87.3697L162.636 87.3697ZM144.909 39.8271L174 39.8271L174 43.2361L151.159 59.0884L151.159 59.3725L174 59.3725L174 62.8952L144.909 62.8952L144.909 59.4862L167.807 43.5771L167.807 43.293L144.909 43.293L144.909 39.8271Z"/>
</mask>
<path d="M144.909 148.676L144.909 144.642L158.489 136.574L158.489 136.233L144.909 128.165L144.909 124.131L162.011 134.642L174 134.642L174 138.165L162.011 138.165L144.909 148.676ZM144.909 100.484L144.909 96.9613L164.17 96.9613C166.159 96.9613 167.935 97.43 169.497 98.3675C171.05 99.2956 172.277 100.607 173.176 102.302C174.066 103.997 174.511 105.986 174.511 108.268C174.511 110.55 174.066 112.539 173.176 114.234C172.277 115.929 171.05 117.245 169.497 118.183C167.935 119.111 166.159 119.575 164.17 119.575L144.909 119.575L144.909 116.052L163.886 116.052C165.307 116.052 166.571 115.74 167.679 115.115C168.777 114.49 169.644 113.6 170.278 112.444C170.903 111.279 171.216 109.887 171.216 108.268C171.216 106.649 170.903 105.257 170.278 104.092C169.644 102.927 168.777 102.037 167.679 101.422C166.571 100.797 165.307 100.484 163.886 100.484L144.909 100.484ZM174 88.7333L174 92.4265L144.909 81.7447L144.909 78.1083L174 67.4265L174 71.1197L149.511 79.8129L149.511 80.0401L174 88.7333ZM162.636 87.3697L162.636 72.4833L165.761 72.4833L165.761 87.3697L162.636 87.3697ZM144.909 39.8271L174 39.8271L174 43.2361L151.159 59.0884L151.159 59.3725L174 59.3725L174 62.8952L144.909 62.8952L144.909 59.4862L167.807 43.5771L167.807 43.293L144.909 43.293L144.909 39.8271Z" fill="black"/>
<path d="M144.909 148.676L143.909 148.676C143.909 149.039 144.105 149.373 144.421 149.549C144.737 149.726 145.124 149.718 145.433 149.528L144.909 148.676ZM144.909 144.642L144.398 143.783C144.095 143.963 143.909 144.29 143.909 144.642L144.909 144.642ZM158.489 136.574L158.999 137.434C159.303 137.254 159.489 136.927 159.489 136.574L158.489 136.574ZM158.489 136.233L159.489 136.233C159.489 135.881 159.303 135.554 158.999 135.374L158.489 136.233ZM144.909 128.165L143.909 128.165C143.909 128.518 144.095 128.845 144.398 129.025L144.909 128.165ZM144.909 124.131L145.433 123.279C145.124 123.089 144.737 123.081 144.421 123.258C144.105 123.435 143.909 123.769 143.909 124.131L144.909 124.131ZM162.011 134.642L161.488 135.494C161.645 135.591 161.826 135.642 162.011 135.642L162.011 134.642ZM174 134.642L175 134.642C175 134.09 174.552 133.642 174 133.642L174 134.642ZM174 138.165L174 139.165C174.552 139.165 175 138.717 175 138.165L174 138.165ZM162.011 138.165L162.011 137.165C161.826 137.165 161.645 137.216 161.488 137.313L162.011 138.165ZM145.909 148.676L145.909 144.642L143.909 144.642L143.909 148.676L145.909 148.676ZM145.42 145.502L158.999 137.434L157.978 135.715L144.398 143.783L145.42 145.502ZM159.489 136.574L159.489 136.233L157.489 136.233L157.489 136.574L159.489 136.574ZM158.999 135.374L145.42 127.305L144.398 129.025L157.978 137.093L158.999 135.374ZM145.909 128.165L145.909 124.131L143.909 124.131L143.909 128.165L145.909 128.165ZM144.385 124.983L161.488 135.494L162.535 133.79L145.433 123.279L144.385 124.983ZM162.011 135.642L174 135.642L174 133.642L162.011 133.642L162.011 135.642ZM173 134.642L173 138.165L175 138.165L175 134.642L173 134.642ZM174 137.165L162.011 137.165L162.011 139.165L174 139.165L174 137.165ZM161.488 137.313L144.385 147.825L145.433 149.528L162.535 139.017L161.488 137.313ZM144.909 100.484L143.909 100.484C143.909 101.036 144.357 101.484 144.909 101.484L144.909 100.484ZM144.909 96.9613L144.909 95.9613C144.357 95.9613 143.909 96.409 143.909 96.9613L144.909 96.9613ZM169.497 98.3675L168.983 99.225L168.984 99.226L169.497 98.3675ZM173.176 102.302L174.061 101.837L174.059 101.833L173.176 102.302ZM173.176 114.234L174.059 114.703L174.061 114.699L173.176 114.234ZM169.497 118.183L170.008 119.043L170.014 119.039L169.497 118.183ZM144.909 119.575L143.909 119.575C143.909 120.127 144.357 120.575 144.909 120.575L144.909 119.575ZM144.909 116.052L144.909 115.052C144.357 115.052 143.909 115.5 143.909 116.052L144.909 116.052ZM167.679 115.115L168.17 115.986L168.173 115.984L167.679 115.115ZM170.278 112.444L171.155 112.926L171.16 112.917L170.278 112.444ZM170.278 104.092L171.16 103.619L171.157 103.614L170.278 104.092ZM167.679 101.422L167.188 102.292L167.19 102.294L167.679 101.422ZM145.909 100.484L145.909 96.9613L143.909 96.9613L143.909 100.484L145.909 100.484ZM144.909 97.9613L164.17 97.9613L164.17 95.9613L144.909 95.9613L144.909 97.9613ZM164.17 97.9613C165.995 97.9613 167.59 98.3892 168.983 99.225L170.012 97.51C168.28 96.4709 166.323 95.9613 164.17 95.9613L164.17 97.9613ZM168.984 99.226C170.371 100.055 171.473 101.227 172.293 102.771L174.059 101.833C173.08 99.9873 171.729 98.5365 170.01 97.5091L168.984 99.226ZM172.291 102.767C173.092 104.294 173.511 106.117 173.511 108.268L175.511 108.268C175.511 105.855 175.04 103.701 174.061 101.837L172.291 102.767ZM173.511 108.268C173.511 110.419 173.092 112.243 172.291 113.769L174.061 114.699C175.04 112.835 175.511 110.681 175.511 108.268L173.511 108.268ZM172.293 113.765C171.473 115.31 170.369 116.488 168.98 117.327L170.014 119.039C171.731 118.002 173.08 116.548 174.059 114.703L172.293 113.765ZM168.986 117.323C167.593 118.151 165.997 118.575 164.17 118.575L164.17 120.575C166.321 120.575 168.276 120.071 170.008 119.043L168.986 117.323ZM164.17 118.575L144.909 118.575L144.909 120.575L164.17 120.575L164.17 118.575ZM145.909 119.575L145.909 116.052L143.909 116.052L143.909 119.575L145.909 119.575ZM144.909 117.052L163.886 117.052L163.886 115.052L144.909 115.052L144.909 117.052ZM163.886 117.052C165.458 117.052 166.896 116.705 168.17 115.986L167.188 114.244C166.247 114.775 165.155 115.052 163.886 115.052L163.886 117.052ZM168.173 115.984C169.44 115.263 170.435 114.236 171.155 112.926L169.402 111.963C168.852 112.963 168.115 113.716 167.184 114.246L168.173 115.984ZM171.16 112.917C171.878 111.578 172.216 110.016 172.216 108.268L170.216 108.268C170.216 109.759 169.929 110.981 169.397 111.971L171.16 112.917ZM172.216 108.268C172.216 106.52 171.878 104.959 171.16 103.619L169.397 104.565C169.929 105.555 170.216 106.777 170.216 108.268L172.216 108.268ZM171.157 103.614C170.437 102.293 169.44 101.262 168.168 100.549L167.19 102.294C168.115 102.812 168.851 103.562 169.4 104.57L171.157 103.614ZM168.17 100.551C166.896 99.8314 165.458 99.484 163.886 99.484L163.886 101.484C165.155 101.484 166.247 101.762 167.188 102.292L168.17 100.551ZM163.886 99.484L144.909 99.484L144.909 101.484L163.886 101.484L163.886 99.484ZM174 88.7333L175 88.7333C175 88.31 174.733 87.9325 174.335 87.7909L174 88.7333ZM174 92.4265L173.655 93.3652C173.962 93.4778 174.304 93.4335 174.572 93.2465C174.84 93.0594 175 92.7533 175 92.4265L174 92.4265ZM144.909 81.7447L143.909 81.7447C143.909 82.164 144.171 82.5388 144.564 82.6834L144.909 81.7447ZM144.909 78.1083L144.564 77.1696C144.171 77.3141 143.909 77.6889 143.909 78.1083L144.909 78.1083ZM174 67.4265L175 67.4265C175 67.0997 174.84 66.7936 174.572 66.6065C174.304 66.4195 173.962 66.3751 173.655 66.4878L174 67.4265ZM174 71.1197L174.335 72.0621C174.733 71.9204 175 71.543 175 71.1197L174 71.1197ZM149.511 79.8129L149.177 78.8705C148.778 79.0121 148.511 79.3895 148.511 79.8129L149.511 79.8129ZM149.511 80.0401L148.511 80.0401C148.511 80.4634 148.778 80.8409 149.177 80.9825L149.511 80.0401ZM162.636 87.3697L161.636 87.3697C161.636 87.922 162.084 88.3697 162.636 88.3697L162.636 87.3697ZM162.636 72.4833L162.636 71.4833C162.084 71.4833 161.636 71.931 161.636 72.4833L162.636 72.4833ZM165.761 72.4833L166.761 72.4833C166.761 71.931 166.314 71.4833 165.761 71.4833L165.761 72.4833ZM165.761 87.3697L165.761 88.3697C166.314 88.3697 166.761 87.922 166.761 87.3697L165.761 87.3697ZM173 88.7333L173 92.4265L175 92.4265L175 88.7333L173 88.7333ZM174.345 91.4878L145.254 80.806L144.564 82.6834L173.655 93.3652L174.345 91.4878ZM145.909 81.7447L145.909 78.1083L143.909 78.1083L143.909 81.7447L145.909 81.7447ZM145.254 79.047L174.345 68.3652L173.655 66.4878L144.564 77.1696L145.254 79.047ZM173 67.4265L173 71.1197L175 71.1197L175 67.4265L173 67.4265ZM173.665 70.1773L149.177 78.8705L149.846 80.7552L174.335 72.0621L173.665 70.1773ZM148.511 79.8129L148.511 80.0401L150.511 80.0401L150.511 79.8129L148.511 79.8129ZM149.177 80.9825L173.665 89.6757L174.335 87.7909L149.846 79.0977L149.177 80.9825ZM163.636 87.3697L163.636 72.4833L161.636 72.4833L161.636 87.3697L163.636 87.3697ZM162.636 73.4833L165.761 73.4833L165.761 71.4833L162.636 71.4833L162.636 73.4833ZM164.761 72.4833L164.761 87.3697L166.761 87.3697L166.761 72.4833L164.761 72.4833ZM165.761 86.3697L162.636 86.3697L162.636 88.3697L165.761 88.3697L165.761 86.3697ZM144.909 39.8271L144.909 38.8271C144.357 38.8271 143.909 39.2748 143.909 39.8271L144.909 39.8271ZM174 39.8271L175 39.8271C175 39.2748 174.552 38.8271 174 38.8271L174 39.8271ZM174 43.2361L174.57 44.0577C174.839 43.8708 175 43.5639 175 43.2361L174 43.2361ZM151.159 59.0884L150.589 58.2669C150.32 58.4538 150.159 58.7607 150.159 59.0884L151.159 59.0884ZM151.159 59.3725L150.159 59.3725C150.159 59.9248 150.607 60.3725 151.159 60.3725L151.159 59.3725ZM174 59.3725L175 59.3725C175 58.8202 174.552 58.3725 174 58.3725L174 59.3725ZM174 62.8952L174 63.8952C174.552 63.8952 175 63.4475 175 62.8952L174 62.8952ZM144.909 62.8952L143.909 62.8952C143.909 63.4475 144.357 63.8952 144.909 63.8952L144.909 62.8952ZM144.909 59.4862L144.338 58.6649C144.07 58.8518 143.909 59.1586 143.909 59.4862L144.909 59.4862ZM167.807 43.5771L168.377 44.3983C168.646 44.2114 168.807 43.9046 168.807 43.5771L167.807 43.5771ZM167.807 43.293L168.807 43.293C168.807 42.7407 168.359 42.293 167.807 42.293L167.807 43.293ZM144.909 43.293L143.909 43.293C143.909 43.8453 144.357 44.293 144.909 44.293L144.909 43.293ZM144.909 40.8271L174 40.8271L174 38.8271L144.909 38.8271L144.909 40.8271ZM173 39.8271L173 43.2361L175 43.2361L175 39.8271L173 39.8271ZM173.43 42.4146L150.589 58.2669L151.729 59.91L174.57 44.0577L173.43 42.4146ZM150.159 59.0884L150.159 59.3725L152.159 59.3725L152.159 59.0884L150.159 59.0884ZM151.159 60.3725L174 60.3725L174 58.3725L151.159 58.3725L151.159 60.3725ZM173 59.3725L173 62.8952L175 62.8952L175 59.3725L173 59.3725ZM174 61.8952L144.909 61.8952L144.909 63.8952L174 63.8952L174 61.8952ZM145.909 62.8952L145.909 59.4862L143.909 59.4862L143.909 62.8952L145.909 62.8952ZM145.48 60.3074L168.377 44.3983L167.236 42.7558L144.338 58.6649L145.48 60.3074ZM168.807 43.5771L168.807 43.293L166.807 43.293L166.807 43.5771L168.807 43.5771ZM167.807 42.293L144.909 42.293L144.909 44.293L167.807 44.293L167.807 42.293ZM145.909 43.293L145.909 39.8271L143.909 39.8271L143.909 43.293L145.909 43.293Z" fill="black" mask="url(#path-3-outside-1_687_415)"/>
</svg>
